<?xml version="1.0" standalone="no"?>
<!DOCTYPE svg PUBLIC "-//W3C//DTD SVG 20010904//EN"
 "http://www.w3.org/TR/2001/REC-SVG-20010904/DTD/svg10.dtd">
<svg version="1.0" xmlns="http://www.w3.org/2000/svg"
 width="283.000000pt" height="201.000000pt" viewBox="0 0 283.000000 201.000000"
 preserveAspectRatio="xMidYMid meet">
<metadata>
Created by potrace 1.16, written by Peter Selinger 2001-2019
</metadata>
<g transform="translate(0.000000,201.000000) scale(0.100000,-0.100000)"
fill="#FFFFFF" stroke="none">
<path d="M1150 1735 c-96 -20 -219 -69 -234 -94 -3 -4 26 -82 64 -172 39 -90
70 -174 70 -186 0 -29 -26 -53 -58 -53 -15 0 -98 34 -185 75 -88 41 -163 72
-168 69 -34 -21 -107 -224 -112 -309 l-2 -50 170 -5 c94 -3 198 -2 231 2 158
18 297 143 339 303 11 43 15 110 15 247 l0 188 -32 -1 c-18 0 -62 -7 -98 -14z"/>
<path d="M1364 1737 c-3 -8 -4 -111 -2 -229 l3 -213 32 -67 c55 -116 159 -201
278 -226 28 -6 134 -12 235 -12 l185 -2 -2 62 c-3 110 -74 300 -112 300 -10 0
-85 -29 -167 -65 -82 -36 -161 -65 -176 -65 -33 0 -58 24 -58 55 0 13 34 94
75 181 42 87 73 164 70 172 -6 17 -133 75 -210 95 -104 27 -144 31 -151 14z"/>
<path d="M520 893 c0 -86 65 -290 102 -320 12 -11 44 -1 181 57 91 39 174 70
185 70 24 0 52 -30 52 -57 0 -11 -34 -94 -76 -183 -71 -153 -74 -163 -58 -181
35 -39 254 -113 318 -107 l31 3 3 199 c3 267 -17 336 -129 441 -98 91 -188
115 -446 115 l-163 0 0 -37z"/>
<path d="M1660 900 c-70 -17 -132 -51 -185 -101 -114 -108 -135 -176 -135
-441 l0 -188 33 0 c89 0 286 60 320 98 14 16 10 30 -53 177 -38 88 -69 172
-70 186 0 28 27 59 52 59 9 0 91 -35 183 -77 l167 -77 23 26 c28 33 80 175 97
263 10 56 10 68 -3 76 -17 11 -381 10 -429 -1z"/>
</g>
</svg>
